{
  "accessors": [
    {
      "bufferView": 2,
      "componentType": 5126,
      "count": 65532,
      "max": [
        98.21813201904297,
        99.38130187988281,
        72.51850128173828
      ],
      "min": [
        -69.31635284423828,
        43.5078010559082,
        -97.38772583007813
      ],
      "type": "VEC3"
    },
    {
      "bufferView": 2,
      "byteOffset": 786384,
      "componentType": 5126,
      "count": 65532,
      "max": [
        0.9999926686286926,
        0.9985940456390381,
        0.9999816417694092
      ],
      "min": [
        -0.9998397827148438,
        -0.9999859929084778,
        -0.999995231628418
      ],
      "type": "VEC3"
    },
    {
      "bufferView": 1,
      "componentType": 5126,
      "count": 65532,
      "max": [
        0.9998779892921448,
        0.9997559785842896
      ],
      "min": [
        0.00024399999529123306,
        0.0021230001002550125
      ],
      "type": "VEC2"
    },
    {
      "bufferView": 0,
      "componentType": 5125,
      "count": 227112,
      "type": "SCALAR"
    },
    {
      "bufferView": 2,
      "byteOffset": 1572768,
      "componentType": 5126,
      "count": 36100,
      "max": [
        98.13690185546875,
        105.49498748779297,
        72.51480102539063
      ],
      "min": [
        -69.2382583618164,
        42.38254165649414,
        -97.48027801513672
      ],
      "type": "VEC3"
    },
    {
      "bufferView": 2,
      "byteOffset": 2005968,
      "componentType": 5126,
      "count": 36100,
      "max": [
        0.9999706745147705,
        0.99989253282547,
        0.9999922513961792
      ],
      "min": [
        -0.9999812841415405,
        -0.9999783039093018,
        -0.9998155236244202
      ],
      "type": "VEC3"
    },
    {
      "bufferView": 1,
      "byteOffset": 524256,
      "componentType": 5126,
      "count": 36100,
      "max": [
        0.998869001865387,
        0.9997559785842896
      ],
      "min": [
        0.00024399999529123306,
        0.0038300000596791506
      ],
      "type": "VEC2"
    },
    {
      "bufferView": 0,
      "byteOffset": 908448,
      "componentType": 5125,
      "count": 96573,
      "type": "SCALAR"
    },
    {
      "bufferView": 2,
      "byteOffset": 2439168,
      "componentType": 5126,
      "count": 65532,
      "max": [
        98.1583251953125,
        102.20657348632813,
        72.51480102539063
      ],
      "min": [
        -69.3200912475586,
        41.867393493652344,
        -97.34786987304688
      ],
      "type": "VEC3"
    },
    {
      "bufferView": 2,
      "byteOffset": 3225552,
      "componentType": 5126,
      "count": 65532,
      "max": [
        0.9999899864196777,
        0.9924909472465515,
        0.9999966621398926
      ],
      "min": [
        -0.9999974966049194,
        -0.9999946355819702,
        -0.9999647736549377
      ],
      "type": "VEC3"
    },
    {
      "bufferView": 1,
      "byteOffset": 813056,
      "componentType": 5126,
      "count": 65532,
      "max": [
        0.9969679713249207,
        0.998045027256012
      ],
      "min": [
        0.001964000053703785,
        0.01260599959641695
      ],
      "type": "VEC2"
    },
    {
      "bufferView": 0,
      "byteOffset": 1294740,
      "componentType": 5125,
      "count": 270129,
      "type": "SCALAR"
    },
    {
      "bufferView": 2,
      "byteOffset": 4011936,
      "componentType": 5126,
      "count": 14908,
      "max": [
        98.1666488647461,
        105.04752349853516,
        72.40181732177734
      ],
      "min": [
        -68.8837890625,
        46.17662811279297,
        -97.40154266357422
      ],
      "type": "VEC3"
    },
    {
      "bufferView": 2,
      "byteOffset": 4190832,
      "componentType": 5126,
      "count": 14908,
      "max": [
        0.9999599456787109,
        0.8604519963264465,
        0.9999583959579468
      ],
      "min": [
        -0.9999526143074036,
        -0.9999934434890747,
        -0.9995642304420471
      ],
      "type": "VEC3"
    },
    {
      "bufferView": 1,
      "byteOffset": 1337312,
      "componentType": 5126,
      "count": 14908,
      "max": [
        0.9988319873809814,
        0.9980369806289673
      ],
      "min": [
        0.0020389999262988567,
        0.015096999704837799
      ],
      "type": "VEC2"
    },
    {
      "bufferView": 0,
      "byteOffset": 2375256,
      "componentType": 5125,
      "count": 53532,
      "type": "SCALAR"
    },
    {
      "bufferView": 2,
      "byteOffset": 4369728,
      "componentType": 5126,
      "count": 54123,
      "max": [
        98.22966766357422,
        104.31021881103516,
        72.45327758789063
      ],
      "min": [
        -69.28912353515625,
        44.897071838378906,
        -97.4095687866211
      ],
      "type": "VEC3"
    },
    {
      "bufferView": 2,
      "byteOffset": 5019204,
      "componentType": 5126,
      "count": 54123,
      "max": [
        0.9999979734420776,
        0.9351842403411865,
        0.9999852180480957
      ],
      "min": [
        -0.9998892545700073,
        -0.9999791979789734,
        -0.9999679923057556
      ],
      "type": "VEC3"
    },
    {
      "bufferView": 1,
      "byteOffset": 1456576,
      "componentType": 5126,
      "count": 54123,
      "max": [
        0.9917889833450317,
        0.9978500008583069
      ],
      "min": [
        0.0021810000762343407,
        0.03326699882745743
      ],
      "type": "VEC2"
    },
    {
      "bufferView": 0,
      "byteOffset": 2589384,
      "componentType": 5125,
      "count": 234243,
      "type": "SCALAR"
    },
    {
      "bufferView": 2,
      "byteOffset": 5668680,
      "componentType": 5126,
      "count": 17566,
      "max": [
        98.20069885253906,
        88.83201599121094,
        71.86964416503906
      ],
      "min": [
        -69.28912353515625,
        41.861358642578125,
        -57.57918167114258
      ],
      "type": "VEC3"
    },
    {
      "bufferView": 2,
      "byteOffset": 5879472,
      "componentType": 5126,
      "count": 17566,
      "max": [
        0.9999365210533142,
        0.698100209236145,
        0.9999500513076782
      ],
      "min": [
        -0.9999871253967285,
        -0.9999839067459106,
        -0.99988853931427
      ],
      "type": "VEC3"
    },
    {
      "bufferView": 1,
      "byteOffset": 1889560,
      "componentType": 5126,
      "count": 17566,
      "max": [
        0.8425400257110596,
        0.9959440231323242
      ],
      "min": [
        0.002242000075057149,
        0.4381310045719147
      ],
      "type": "VEC2"
    },
    {
      "bufferView": 0,
      "byteOffset": 3526356,
      "componentType": 5125,
      "count": 81774,
      "type": "SCALAR"
    }
  ],
  "asset": {
    "extras": {
      "author": "IFSC - Câmpus Garopaba (https://sketchfab.com/ifsc)",
      "license": "CC-BY-4.0 (http://creativecommons.org/licenses/by/4.0/)",
      "source": "https://sketchfab.com/3d-models/teste-em-floresta-8d2ca3adc75f4cb2b95df4fee32158d7",
      "title": "Teste em floresta"
    },
    "generator": "Sketchfab-12.62.1",
    "version": "2.0"
  },
  "bufferViews": [
    {
      "buffer": 0,
      "byteLength": 3853452,
      "name": "floatBufferViews",
      "target": 34963
    },
    {
      "buffer": 0,
      "byteLength": 2030088,
      "byteOffset": 3853452,
      "byteStride": 8,
      "name": "floatBufferViews",
      "target": 34962
    },
    {
      "buffer": 0,
      "byteLength": 6090264,
      "byteOffset": 5883540,
      "byteStride": 12,
      "name": "floatBufferViews",
      "target": 34962
    }
  ],
  "buffers": [
    {
      "byteLength": 11973804,
      "uri": "scene.bin"
    }
  ],
  "images": [
    {
      "uri": "textures/material_00_baseColor.jpeg"
    },
    {
      "uri": "textures/material_01_baseColor.jpeg"
    },
    {
      "uri": "textures/material_02_baseColor.jpeg"
    },
    {
      "uri": "textures/material_03_baseColor.jpeg"
    }
  ],
  "materials": [
    {
      "doubleSided": true,
      "name": "material_00",
      "pbrMetallicRoughness": {
        "baseColorTexture": {
          "index": 0
        },
        "metallicFactor": 0.0
      }
    },
    {
      "doubleSided": true,
      "name": "material_01",
      "pbrMetallicRoughness": {
        "baseColorTexture": {
          "index": 1
        },
        "metallicFactor": 0.0
      }
    },
    {
      "doubleSided": true,
      "name": "material_02",
      "pbrMetallicRoughness": {
        "baseColorTexture": {
          "index": 2
        },
        "metallicFactor": 0.0
      }
    },
    {
      "doubleSided": true,
      "name": "material_03",
      "pbrMetallicRoughness": {
        "baseColorTexture": {
          "index": 3
        },
        "metallicFactor": 0.0
      }
    }
  ],
  "meshes": [
    {
      "name": "Object_0",
      "primitives": [
        {
          "attributes": {
            "NORMAL": 1,
            "POSITION": 0,
            "TEXCOORD_0": 2
          },
          "indices": 3,
          "material": 0,
          "mode": 4
        }
      ]
    },
    {
      "name": "Object_1",
      "primitives": [
        {
          "attributes": {
            "NORMAL": 5,
            "POSITION": 4,
            "TEXCOORD_0": 6
          },
          "indices": 7,
          "material": 0,
          "mode": 4
        }
      ]
    },
    {
      "name": "Object_2",
      "primitives": [
        {
          "attributes": {
            "NORMAL": 9,
            "POSITION": 8,
            "TEXCOORD_0": 10
          },
          "indices": 11,
          "material": 1,
          "mode": 4
        }
      ]
    },
    {
      "name": "Object_3",
      "primitives": [
        {
          "attributes": {
            "NORMAL": 13,
            "POSITION": 12,
            "TEXCOORD_0": 14
          },
          "indices": 15,
          "material": 1,
          "mode": 4
        }
      ]
    },
    {
      "name": "Object_4",
      "primitives": [
        {
          "attributes": {
            "NORMAL": 17,
            "POSITION": 16,
            "TEXCOORD_0": 18
          },
          "indices": 19,
          "material": 2,
          "mode": 4
        }
      ]
    },
    {
      "name": "Object_5",
      "primitives": [
        {
          "attributes": {
            "NORMAL": 21,
            "POSITION": 20,
            "TEXCOORD_0": 22
          },
          "indices": 23,
          "material": 3,
          "mode": 4
        }
      ]
    }
  ],
  "nodes": [
    {
      "children": [
        1
      ],
      "matrix": [
        1.0,
        0.0,
        0.0,
        0.0,
        0.0,
        -1.0,
        -4.440892098500626e-16,
        0.0,
        0.0,
        4.440892098500626e-16,
        -1.0,
        0.0,
        0.0,
        61.19652557373049,
        -86.15928649902342,
        1.0
      ],
      "name": "Sketchfab_model"
    },
    {
      "children": [
        2,
        3,
        4,
        5,
        6,
        7
      ],
      "name": "scene_mesh_textured.obj.cleaner.materialmerger.gles"
    },
    {
      "mesh": 0,
      "name": "Object_2"
    },
    {
      "mesh": 1,
      "name": "Object_3"
    },
    {
      "mesh": 2,
      "name": "Object_4"
    },
    {
      "mesh": 3,
      "name": "Object_5"
    },
    {
      "mesh": 4,
      "name": "Object_6"
    },
    {
      "mesh": 5,
      "name": "Object_7"
    }
  ],
  "samplers": [
    {
      "magFilter": 9729,
      "minFilter": 9987,
      "wrapS": 10497,
      "wrapT": 10497
    }
  ],
  "scene": 0,
  "scenes": [
    {
      "name": "Sketchfab_Scene",
      "nodes": [
        0
      ]
    }
  ],
  "textures": [
    {
      "sampler": 0,
      "source": 0
    },
    {
      "sampler": 0,
      "source": 1
    },
    {
      "sampler": 0,
      "source": 2
    },
    {
      "sampler": 0,
      "source": 3
    }
  ]
}
