{
	"asset":{
		"generator":"Khronos glTF Blender I/O v4.2.69",
		"version":"2.0"
	},
	"scene":0,
	"scenes":[
		{
			"name":"Scene",
			"nodes":[
				0,
				1,
				2,
				3
			]
		}
	],
	"nodes":[
		{
			"mesh":0,
			"name":"Landscape",
			"translation":[
				0.0974479392170906,
				-0.23114240169525146,
				0.41276589035987854
			]
		},
		{
			"mesh":1,
			"name":"Landscape.002",
			"rotation":[
				0,
				-0.5669141411781311,
				0,
				0.82377690076828
			],
			"translation":[
				-2.7616982460021973,
				-0.23114240169525146,
				-3.131265163421631
			]
		},
		{
			"mesh":2,
			"name":"Landscape.003",
			"rotation":[
				0,
				0.49277833104133606,
				0,
				0.8701549172401428
			],
			"translation":[
				6.9558424949646,
				0.6890954375267029,
				-3.257042646408081
			]
		},
		{
			"mesh":3,
			"name":"Landscape.004",
			"rotation":[
				0,
				-0.9622410535812378,
				0,
				0.2721991240978241
			],
			"translation":[
				3.9201273918151855,
				-0.23114240169525146,
				-5.177217483520508
			]
		}
	],
	"materials":[
		{
			"doubleSided":true,
			"name":"Material.001",
			"normalTexture":{
				"index":0
			},
			"pbrMetallicRoughness":{
				"baseColorTexture":{
					"index":1
				},
				"metallicFactor":0,
				"metallicRoughnessTexture":{
					"index":2
				}
			}
		},
		{
			"doubleSided":true,
			"name":"Material.008",
			"normalTexture":{
				"index":3
			},
			"pbrMetallicRoughness":{
				"baseColorTexture":{
					"index":4
				},
				"metallicFactor":0,
				"metallicRoughnessTexture":{
					"index":5
				}
			}
		},
		{
			"doubleSided":true,
			"name":"Material.009",
			"normalTexture":{
				"index":6
			},
			"pbrMetallicRoughness":{
				"baseColorTexture":{
					"index":7
				},
				"metallicFactor":0,
				"metallicRoughnessTexture":{
					"index":8
				}
			}
		},
		{
			"doubleSided":true,
			"name":"Material.010",
			"normalTexture":{
				"index":9
			},
			"pbrMetallicRoughness":{
				"baseColorTexture":{
					"index":10
				},
				"metallicFactor":0,
				"metallicRoughnessTexture":{
					"index":11
				}
			}
		}
	],
	"meshes":[
		{
			"name":"Landscape",
			"primitives":[
				{
					"attributes":{
						"POSITION":0,
						"NORMAL":1,
						"TEXCOORD_0":2
					},
					"indices":3,
					"material":0
				}
			]
		},
		{
			"name":"Landscape.002",
			"primitives":[
				{
					"attributes":{
						"POSITION":4,
						"NORMAL":5,
						"TEXCOORD_0":6
					},
					"indices":7,
					"material":1
				}
			]
		},
		{
			"name":"Landscape.003",
			"primitives":[
				{
					"attributes":{
						"POSITION":8,
						"NORMAL":9,
						"TEXCOORD_0":10
					},
					"indices":11,
					"material":2
				}
			]
		},
		{
			"name":"Landscape.004",
			"primitives":[
				{
					"attributes":{
						"POSITION":12,
						"NORMAL":13,
						"TEXCOORD_0":14
					},
					"indices":15,
					"material":3
				}
			]
		}
	],
	"textures":[
		{
			"sampler":0,
			"source":0
		},
		{
			"sampler":0,
			"source":1
		},
		{
			"sampler":0,
			"source":2
		},
		{
			"sampler":0,
			"source":3
		},
		{
			"sampler":0,
			"source":4
		},
		{
			"sampler":0,
			"source":5
		},
		{
			"sampler":0,
			"source":0
		},
		{
			"sampler":0,
			"source":1
		},
		{
			"sampler":0,
			"source":2
		},
		{
			"sampler":0,
			"source":0
		},
		{
			"sampler":0,
			"source":1
		},
		{
			"sampler":0,
			"source":2
		}
	],
	"images":[
		{
			"mimeType":"image/png",
			"name":"TexturesCom_Rock_CliffSnow_1K_normal.tif",
			"uri":"TexturesCom_Rock_CliffSnow_1K_normal_tif.png"
		},
		{
			"mimeType":"image/png",
			"name":"TexturesCom_Rock_CliffSnow_1K_albedo.tif",
			"uri":"TexturesCom_Rock_CliffSnow_1K_albedo_tif.png"
		},
		{
			"mimeType":"image/png",
			"name":"TexturesCom_Rock_CliffSnow_1K_roughness.tif",
			"uri":"TexturesCom_Rock_CliffSnow_1K_roughness_tif.png"
		},
		{
			"mimeType":"image/png",
			"name":"TexturesCom_Rock_CliffSnow_1K_normal",
			"uri":"TexturesCom_Rock_CliffSnow_1K_normal.png"
		},
		{
			"mimeType":"image/png",
			"name":"TexturesCom_Rock_CliffSnow_1K_albedo",
			"uri":"TexturesCom_Rock_CliffSnow_1K_albedo.png"
		},
		{
			"mimeType":"image/png",
			"name":"TexturesCom_Rock_CliffSnow_1K_roughness",
			"uri":"TexturesCom_Rock_CliffSnow_1K_roughness.png"
		}
	],
	"accessors":[
		{
			"bufferView":0,
			"componentType":5126,
			"count":13320,
			"max":[
				10,
				5.766932964324951,
				9.055118560791016
			],
			"min":[
				-10,
				-2.1999998092651367,
				-10
			],
			"type":"VEC3"
		},
		{
			"bufferView":1,
			"componentType":5126,
			"count":13320,
			"type":"VEC3"
		},
		{
			"bufferView":2,
			"componentType":5126,
			"count":13320,
			"type":"VEC2"
		},
		{
			"bufferView":3,
			"componentType":5123,
			"count":78312,
			"type":"SCALAR"
		},
		{
			"bufferView":4,
			"componentType":5126,
			"count":12006,
			"max":[
				10,
				5.766932964324951,
				10
			],
			"min":[
				-8.740157127380371,
				-2.1999998092651367,
				-10
			],
			"type":"VEC3"
		},
		{
			"bufferView":5,
			"componentType":5126,
			"count":12006,
			"type":"VEC3"
		},
		{
			"bufferView":6,
			"componentType":5126,
			"count":12006,
			"type":"VEC2"
		},
		{
			"bufferView":7,
			"componentType":5123,
			"count":70470,
			"type":"SCALAR"
		},
		{
			"bufferView":8,
			"componentType":5126,
			"count":11822,
			"max":[
				8.740157127380371,
				5.766932964324951,
				8.740157127380371
			],
			"min":[
				-10,
				-2.1999998092651367,
				-10.882962226867676
			],
			"type":"VEC3"
		},
		{
			"bufferView":9,
			"componentType":5126,
			"count":11822,
			"type":"VEC3"
		},
		{
			"bufferView":10,
			"componentType":5126,
			"count":11822,
			"type":"VEC2"
		},
		{
			"bufferView":11,
			"componentType":5123,
			"count":69342,
			"type":"SCALAR"
		},
		{
			"bufferView":12,
			"componentType":5126,
			"count":13672,
			"max":[
				10,
				5.766932964324951,
				10
			],
			"min":[
				-8.897637367248535,
				-2.1999998092651367,
				-10
			],
			"type":"VEC3"
		},
		{
			"bufferView":13,
			"componentType":5126,
			"count":13672,
			"type":"VEC3"
		},
		{
			"bufferView":14,
			"componentType":5126,
			"count":13672,
			"type":"VEC2"
		},
		{
			"bufferView":15,
			"componentType":5123,
			"count":80484,
			"type":"SCALAR"
		}
	],
	"bufferViews":[
		{
			"buffer":0,
			"byteLength":159840,
			"byteOffset":0,
			"target":34962
		},
		{
			"buffer":0,
			"byteLength":159840,
			"byteOffset":159840,
			"target":34962
		},
		{
			"buffer":0,
			"byteLength":106560,
			"byteOffset":319680,
			"target":34962
		},
		{
			"buffer":0,
			"byteLength":156624,
			"byteOffset":426240,
			"target":34963
		},
		{
			"buffer":0,
			"byteLength":144072,
			"byteOffset":582864,
			"target":34962
		},
		{
			"buffer":0,
			"byteLength":144072,
			"byteOffset":726936,
			"target":34962
		},
		{
			"buffer":0,
			"byteLength":96048,
			"byteOffset":871008,
			"target":34962
		},
		{
			"buffer":0,
			"byteLength":140940,
			"byteOffset":967056,
			"target":34963
		},
		{
			"buffer":0,
			"byteLength":141864,
			"byteOffset":1107996,
			"target":34962
		},
		{
			"buffer":0,
			"byteLength":141864,
			"byteOffset":1249860,
			"target":34962
		},
		{
			"buffer":0,
			"byteLength":94576,
			"byteOffset":1391724,
			"target":34962
		},
		{
			"buffer":0,
			"byteLength":138684,
			"byteOffset":1486300,
			"target":34963
		},
		{
			"buffer":0,
			"byteLength":164064,
			"byteOffset":1624984,
			"target":34962
		},
		{
			"buffer":0,
			"byteLength":164064,
			"byteOffset":1789048,
			"target":34962
		},
		{
			"buffer":0,
			"byteLength":109376,
			"byteOffset":1953112,
			"target":34962
		},
		{
			"buffer":0,
			"byteLength":160968,
			"byteOffset":2062488,
			"target":34963
		}
	],
	"samplers":[
		{
			"magFilter":9729,
			"minFilter":9987
		}
	],
	"buffers":[
		{
			"byteLength":2223456,
			"uri":"untitled.bin"
		}
	]
}
