{
  "accessors": [
    {
      "bufferView": 2,
      "componentType": 5126,
      "count": 2818,
      "max": [
        2.469332456588745,
        0.8199230432510376,
        0.43744146823883057
      ],
      "min": [
        -9.164390563964844,
        -5.918239116668701,
        -0.43744146823883057
      ],
      "type": "VEC3"
    },
    {
      "bufferView": 2,
      "byteOffset": 33816,
      "componentType": 5126,
      "count": 2818,
      "max": [
        0.9999983906745911,
        0.9997903108596802,
        0.9999304413795471
      ],
      "min": [
        -0.9999983906745911,
        -0.9991241097450256,
        -0.9999304413795471
      ],
      "type": "VEC3"
    },
    {
      "bufferView": 1,
      "componentType": 5126,
      "count": 2818,
      "max": [
        0.875,
        1.0
      ],
      "min": [
        0.125,
        0.0
      ],
      "type": "VEC2"
    },
    {
      "bufferView": 0,
      "componentType": 5125,
      "count": 16512,
      "type": "SCALAR"
    },
    {
      "bufferView": 2,
      "byteOffset": 67632,
      "componentType": 5126,
      "count": 4351,
      "max": [
        6.085676193237305,
        15.208367347717285,
        2.892446279525757
      ],
      "min": [
        0.3007826805114746,
        4.141275405883789,
        -2.8924472332000732
      ],
      "type": "VEC3"
    },
    {
      "bufferView": 2,
      "byteOffset": 119844,
      "componentType": 5126,
      "count": 4351,
      "max": [
        1.0,
        1.0,
        1.0
      ],
      "min": [
        -1.0,
        -1.0,
        -1.0
      ],
      "type": "VEC3"
    },
    {
      "bufferView": 1,
      "byteOffset": 22544,
      "componentType": 5126,
      "count": 4351,
      "max": [
        0.875,
        1.0
      ],
      "min": [
        0.125,
        -7.450580596923828e-08
      ],
      "type": "VEC2"
    },
    {
      "bufferView": 0,
      "byteOffset": 66048,
      "componentType": 5125,
      "count": 23526,
      "type": "SCALAR"
    },
    {
      "bufferView": 3,
      "componentType": 5126,
      "count": 1,
      "max": [
        0.0416666679084301
      ],
      "min": [
        0.0416666679084301
      ],
      "type": "SCALAR"
    },
    {
      "bufferView": 4,
      "componentType": 5126,
      "count": 1,
      "max": [
        2.634019374847412,
        11.55190372467041,
        10.417613983154297
      ],
      "min": [
        2.634019374847412,
        11.55190372467041,
        10.417613983154297
      ],
      "type": "VEC3"
    },
    {
      "bufferView": 3,
      "byteOffset": 4,
      "componentType": 5126,
      "count": 1,
      "max": [
        0.0416666679084301
      ],
      "min": [
        0.0416666679084301
      ],
      "type": "SCALAR"
    },
    {
      "bufferView": 4,
      "byteOffset": 12,
      "componentType": 5126,
      "count": 1,
      "max": [
        0.16075706481933594,
        0.16075706481933594,
        1.0
      ],
      "min": [
        0.16075706481933594,
        0.16075706481933594,
        1.0
      ],
      "type": "VEC3"
    }
  ],
  "animations": [
    {
      "channels": [
        {
          "sampler": 0,
          "target": {
            "node": 14,
            "path": "translation"
          }
        },
        {
          "sampler": 1,
          "target": {
            "node": 14,
            "path": "scale"
          }
        }
      ],
      "name": "Take 001",
      "samplers": [
        {
          "input": 8,
          "interpolation": "LINEAR",
          "output": 9
        },
        {
          "input": 10,
          "interpolation": "LINEAR",
          "output": 11
        }
      ]
    }
  ],
  "asset": {
    "extras": {
      "author": "Julio Cesar (https://sketchfab.com/juliocesarguedes)",
      "license": "CC-BY-4.0 (http://creativecommons.org/licenses/by/4.0/)",
      "source": "https://sketchfab.com/3d-models/trofeu-240e8fbfba5b48148ae6bda2a3ba04ba",
      "title": "Trofeu"
    },
    "generator": "Sketchfab-12.68.0",
    "version": "2.0"
  },
  "bufferViews": [
    {
      "buffer": 0,
      "byteLength": 160152,
      "name": "floatBufferViews",
      "target": 34963
    },
    {
      "buffer": 0,
      "byteLength": 57352,
      "byteOffset": 160152,
      "byteStride": 8,
      "name": "floatBufferViews",
      "target": 34962
    },
    {
      "buffer": 0,
      "byteLength": 172056,
      "byteOffset": 217504,
      "byteStride": 12,
      "name": "floatBufferViews",
      "target": 34962
    },
    {
      "buffer": 0,
      "byteLength": 8,
      "byteOffset": 389560,
      "name": "floatBufferViews"
    },
    {
      "buffer": 0,
      "byteLength": 24,
      "byteOffset": 389568,
      "byteStride": 12,
      "name": "floatBufferViews"
    }
  ],
  "buffers": [
    {
      "byteLength": 389592,
      "uri": "scene.bin"
    }
  ],
  "materials": [
    {
      "doubleSided": true,
      "name": "lambert1",
      "pbrMetallicRoughness": {
        "baseColorFactor": [
          0.472307320362618,
          0.31860405296176714,
          0.07548054034632712,
          1.0
        ],
        "roughnessFactor": 0.2421875
      }
    }
  ],
  "meshes": [
    {
      "name": "pCube1_lambert1_0",
      "primitives": [
        {
          "attributes": {
            "NORMAL": 1,
            "POSITION": 0,
            "TEXCOORD_0": 2
          },
          "indices": 3,
          "material": 0,
          "mode": 4
        }
      ]
    },
    {
      "name": "pCylinder3_lambert1_0",
      "primitives": [
        {
          "attributes": {
            "NORMAL": 5,
            "POSITION": 4,
            "TEXCOORD_0": 6
          },
          "indices": 7,
          "material": 0,
          "mode": 4
        }
      ]
    }
  ],
  "nodes": [
    {
      "children": [
        1
      ],
      "matrix": [
        1.0,
        0.0,
        0.0,
        0.0,
        0.0,
        2.220446049250313e-16,
        -1.0,
        0.0,
        0.0,
        1.0,
        2.220446049250313e-16,
        0.0,
        0.0,
        0.0,
        0.0,
        1.0
      ],
      "name": "Sketchfab_model"
    },
    {
      "children": [
        2
      ],
      "matrix": [
        1.0,
        0.0,
        0.0,
        0.0,
        0.0,
        0.0,
        1.0,
        0.0,
        0.0,
        -1.0,
        0.0,
        0.0,
        0.0,
        0.0,
        0.0,
        1.0
      ],
      "name": "499e38ee6e514becb3f361429785734c.fbx"
    },
    {
      "children": [
        3
      ],
      "name": "Object_2"
    },
    {
      "children": [
        4,
        6,
        8,
        10,
        12,
        14,
        16,
        26,
        28
      ],
      "name": "RootNode"
    },
    {
      "children": [
        5
      ],
      "name": "pCylinder1",
      "scale": [
        2.8005881309509277,
        2.8005881309509277,
        2.8005881309509277
      ],
      "translation": [
        3.1581740379333496,
        12.448651313781738,
        0.0
      ]
    },
    {
      "name": "transform11"
    },
    {
      "children": [
        7
      ],
      "name": "pCube1",
      "scale": [
        1.0,
        1.0,
        0.8388315439224243
      ],
      "translation": [
        6.537808418273926,
        15.013961791992188,
        0.0
      ]
    },
    {
      "mesh": 0,
      "name": "pCube1_lambert1_0"
    },
    {
      "children": [
        9
      ],
      "name": "pCube2",
      "scale": [
        0.6830072402954102,
        0.6830072402954102,
        0.6830072402954102
      ],
      "translation": [
        2.6646106243133545,
        12.676018714904785,
        9.91711711883545
      ]
    },
    {
      "name": "transform1"
    },
    {
      "children": [
        11
      ],
      "name": "pCube3",
      "scale": [
        0.756379246711731,
        0.756379246711731,
        0.6807413101196289
      ],
      "translation": [
        3.809448719024658,
        12.638307571411133,
        9.91711711883545
      ]
    },
    {
      "name": "transform3"
    },
    {
      "children": [
        13
      ],
      "name": "pCylinder2",
      "rotation": [
        0.7071068286895752,
        0.0,
        0.0,
        0.7071068286895752
      ],
      "scale": [
        0.38651174306869507,
        0.33635109663009644,
        0.38651174306869507
      ],
      "translation": [
        3.8353946208953857,
        11.540831565856934,
        9.916112899780273
      ]
    },
    {
      "name": "transform2",
      "rotation": [
        -6.162975822039155e-33,
        -0.0,
        0.0,
        1.0
      ]
    },
    {
      "children": [
        15
      ],
      "name": "pCube4",
      "rotation": [
        0.0,
        -0.0,
        -0.38268348574638367,
        0.9238796234130859
      ],
      "scale": [
        0.16075706481933594,
        0.16075706481933594,
        0.6782715916633606
      ],
      "translation": [
        2.634019374847412,
        11.55190372467041,
        9.917613983154297
      ]
    },
    {
      "name": "transform4",
      "rotation": [
        0.0,
        0.0,
        2.7755575615628914e-17,
        1.0
      ]
    },
    {
      "children": [
        17,
        19,
        21,
        23,
        25
      ],
      "name": "pCube5",
      "translation": [
        0.0,
        0.0,
        -7.108931541442871
      ]
    },
    {
      "children": [
        18
      ],
      "name": "polySurface1",
      "rotation": [
        0.0,
        -0.06811855733394623,
        0.0,
        0.997677206993103
      ],
      "translation": [
        1.3724530935287476,
        0.0,
        -0.26597943902015686
      ]
    },
    {
      "name": "transform6"
    },
    {
      "children": [
        20
      ],
      "name": "polySurface2",
      "rotation": [
        0.0,
        0.07346620410680771,
        0.0,
        0.9972977042198181
      ],
      "translation": [
        -1.4120869636535645,
        0.0,
        0.6652698516845703
      ]
    },
    {
      "name": "transform9"
    },
    {
      "children": [
        22
      ],
      "name": "polySurface3",
      "rotation": [
        0.0,
        0.07346620410680771,
        0.0,
        0.9972977042198181
      ],
      "translation": [
        -1.4116597175598145,
        0.0,
        0.669061005115509
      ]
    },
    {
      "name": "transform8"
    },
    {
      "children": [
        24
      ],
      "name": "polySurface4",
      "rotation": [
        0.0,
        -0.06811855733394623,
        0.0,
        0.997677206993103
      ],
      "translation": [
        1.3726694583892822,
        0.0,
        -0.2701420485973358
      ]
    },
    {
      "name": "transform7"
    },
    {
      "name": "transform5"
    },
    {
      "children": [
        27
      ],
      "name": "polySurface2"
    },
    {
      "name": "transform10"
    },
    {
      "children": [
        29
      ],
      "name": "pCylinder3"
    },
    {
      "mesh": 1,
      "name": "pCylinder3_lambert1_0"
    }
  ],
  "scene": 0,
  "scenes": [
    {
      "name": "Sketchfab_Scene",
      "nodes": [
        0
      ]
    }
  ]
}
