{
	"asset":{
		"generator":"Khronos glTF Blender I/O v4.2.69",
		"version":"2.0"
	},
	"scene":0,
	"scenes":[
		{
			"name":"Scene",
			"nodes":[
				0
			]
		}
	],
	"nodes":[
		{
			"mesh":0,
			"name":"g_BeachBall_Sphere.001",
			"rotation":[
				0.7071068286895752,
				0,
				0,
				0.7071068286895752
			]
		}
	],
	"animations":[
		{
			"channels":[
				{
					"sampler":0,
					"target":{
						"node":0,
						"path":"translation"
					}
				},
				{
					"sampler":1,
					"target":{
						"node":0,
						"path":"rotation"
					}
				},
				{
					"sampler":2,
					"target":{
						"node":0,
						"path":"scale"
					}
				}
			],
			"name":"g_BeachBall_Sphere.001Action",
			"samplers":[
				{
					"input":21,
					"interpolation":"LINEAR",
					"output":22
				},
				{
					"input":21,
					"interpolation":"LINEAR",
					"output":23
				},
				{
					"input":21,
					"interpolation":"LINEAR",
					"output":24
				}
			]
		}
	],
	"materials":[
		{
			"doubleSided":true,
			"name":"BlueLight",
			"pbrMetallicRoughness":{
				"baseColorFactor":[
					0,
					0.800000011920929,
					0.800000011920929,
					1
				],
				"metallicFactor":0,
				"roughnessFactor":0.6900347471237183
			}
		},
		{
			"doubleSided":true,
			"name":"BlueDark",
			"pbrMetallicRoughness":{
				"baseColorFactor":[
					0,
					0.0002479999966453761,
					0.800000011920929,
					1
				],
				"metallicFactor":0,
				"roughnessFactor":0.6900347471237183
			}
		},
		{
			"doubleSided":true,
			"name":"Pink",
			"pbrMetallicRoughness":{
				"baseColorFactor":[
					0.7855179905891418,
					0,
					0.800000011920929,
					1
				],
				"metallicFactor":0,
				"roughnessFactor":0.6900347471237183
			}
		},
		{
			"doubleSided":true,
			"name":"Red",
			"pbrMetallicRoughness":{
				"baseColorFactor":[
					0.800000011920929,
					0,
					0,
					1
				],
				"metallicFactor":0,
				"roughnessFactor":0.6900347471237183
			}
		},
		{
			"doubleSided":true,
			"name":"Yellow",
			"pbrMetallicRoughness":{
				"baseColorFactor":[
					0.800000011920929,
					0.792739987373352,
					0,
					1
				],
				"metallicFactor":0,
				"roughnessFactor":0.6900347471237183
			}
		},
		{
			"doubleSided":true,
			"name":"Green",
			"pbrMetallicRoughness":{
				"baseColorFactor":[
					0.00012399999832268804,
					0.800000011920929,
					0,
					1
				],
				"metallicFactor":0,
				"roughnessFactor":0.6900347471237183
			}
		},
		{
			"doubleSided":true,
			"name":"White",
			"pbrMetallicRoughness":{
				"baseColorFactor":[
					0.800000011920929,
					0.800000011920929,
					0.800000011920929,
					1
				],
				"metallicFactor":0,
				"roughnessFactor":0.6900347471237183
			}
		}
	],
	"meshes":[
		{
			"name":"g_BeachBall_Sphere.001",
			"primitives":[
				{
					"attributes":{
						"POSITION":0,
						"NORMAL":1
					},
					"indices":2,
					"material":0
				},
				{
					"attributes":{
						"POSITION":3,
						"NORMAL":4
					},
					"indices":5,
					"material":1
				},
				{
					"attributes":{
						"POSITION":6,
						"NORMAL":7
					},
					"indices":8,
					"material":2
				},
				{
					"attributes":{
						"POSITION":9,
						"NORMAL":10
					},
					"indices":11,
					"material":3
				},
				{
					"attributes":{
						"POSITION":12,
						"NORMAL":13
					},
					"indices":14,
					"material":4
				},
				{
					"attributes":{
						"POSITION":15,
						"NORMAL":16
					},
					"indices":17,
					"material":5
				},
				{
					"attributes":{
						"POSITION":18,
						"NORMAL":19
					},
					"indices":20,
					"material":6
				}
			]
		}
	],
	"accessors":[
		{
			"bufferView":0,
			"componentType":5126,
			"count":135,
			"max":[
				10.267313957214355,
				-3.539370059967041,
				19.90823745727539
			],
			"min":[
				-10.267303466796875,
				-21.334062576293945,
				-19.874780654907227
			],
			"type":"VEC3"
		},
		{
			"bufferView":1,
			"componentType":5126,
			"count":135,
			"type":"VEC3"
		},
		{
			"bufferView":2,
			"componentType":5123,
			"count":420,
			"type":"SCALAR"
		},
		{
			"bufferView":3,
			"componentType":5126,
			"count":135,
			"max":[
				20.571949005126953,
				-0.02234099991619587,
				19.90823745727539
			],
			"min":[
				1.9585740566253662,
				-18.45948028564453,
				-19.874780654907227
			],
			"type":"VEC3"
		},
		{
			"bufferView":4,
			"componentType":5126,
			"count":135,
			"type":"VEC3"
		},
		{
			"bufferView":5,
			"componentType":5123,
			"count":420,
			"type":"SCALAR"
		},
		{
			"bufferView":6,
			"componentType":5126,
			"count":135,
			"max":[
				20.571949005126953,
				18.45948028564453,
				19.90823745727539
			],
			"min":[
				1.9959050416946411,
				-0.022345999255776405,
				-19.874780654907227
			],
			"type":"VEC3"
		},
		{
			"bufferView":7,
			"componentType":5126,
			"count":135,
			"type":"VEC3"
		},
		{
			"bufferView":8,
			"componentType":5123,
			"count":420,
			"type":"SCALAR"
		},
		{
			"bufferView":9,
			"componentType":5126,
			"count":135,
			"max":[
				10.267313003540039,
				21.334062576293945,
				19.90823745727539
			],
			"min":[
				-10.267303466796875,
				3.539370059967041,
				-19.874780654907227
			],
			"type":"VEC3"
		},
		{
			"bufferView":10,
			"componentType":5126,
			"count":135,
			"type":"VEC3"
		},
		{
			"bufferView":11,
			"componentType":5123,
			"count":420,
			"type":"SCALAR"
		},
		{
			"bufferView":12,
			"componentType":5126,
			"count":135,
			"max":[
				-1.958564043045044,
				18.45948600769043,
				19.908241271972656
			],
			"min":[
				-20.571949005126953,
				0.022345000877976418,
				-19.874786376953125
			],
			"type":"VEC3"
		},
		{
			"bufferView":13,
			"componentType":5126,
			"count":135,
			"type":"VEC3"
		},
		{
			"bufferView":14,
			"componentType":5123,
			"count":420,
			"type":"SCALAR"
		},
		{
			"bufferView":15,
			"componentType":5126,
			"count":135,
			"max":[
				-1.99589204788208,
				0.022350000217556953,
				19.908241271972656
			],
			"min":[
				-20.571949005126953,
				-18.45948600769043,
				-19.874786376953125
			],
			"type":"VEC3"
		},
		{
			"bufferView":16,
			"componentType":5126,
			"count":135,
			"type":"VEC3"
		},
		{
			"bufferView":17,
			"componentType":5123,
			"count":420,
			"type":"SCALAR"
		},
		{
			"bufferView":18,
			"componentType":5126,
			"count":290,
			"max":[
				4.348278999328613,
				4.508097171783447,
				20.343524932861328
			],
			"min":[
				-4.348267078399658,
				-4.508098125457764,
				-20.33966064453125
			],
			"type":"VEC3"
		},
		{
			"bufferView":19,
			"componentType":5126,
			"count":290,
			"type":"VEC3"
		},
		{
			"bufferView":20,
			"componentType":5123,
			"count":1152,
			"type":"SCALAR"
		},
		{
			"bufferView":21,
			"componentType":5126,
			"count":1,
			"max":[
				0.2916666666666667
			],
			"min":[
				0.2916666666666667
			],
			"type":"SCALAR"
		},
		{
			"bufferView":22,
			"componentType":5126,
			"count":1,
			"type":"VEC3"
		},
		{
			"bufferView":23,
			"componentType":5126,
			"count":1,
			"type":"VEC4"
		},
		{
			"bufferView":24,
			"componentType":5126,
			"count":1,
			"type":"VEC3"
		}
	],
	"bufferViews":[
		{
			"buffer":0,
			"byteLength":1620,
			"byteOffset":0,
			"target":34962
		},
		{
			"buffer":0,
			"byteLength":1620,
			"byteOffset":1620,
			"target":34962
		},
		{
			"buffer":0,
			"byteLength":840,
			"byteOffset":3240,
			"target":34963
		},
		{
			"buffer":0,
			"byteLength":1620,
			"byteOffset":4080,
			"target":34962
		},
		{
			"buffer":0,
			"byteLength":1620,
			"byteOffset":5700,
			"target":34962
		},
		{
			"buffer":0,
			"byteLength":840,
			"byteOffset":7320,
			"target":34963
		},
		{
			"buffer":0,
			"byteLength":1620,
			"byteOffset":8160,
			"target":34962
		},
		{
			"buffer":0,
			"byteLength":1620,
			"byteOffset":9780,
			"target":34962
		},
		{
			"buffer":0,
			"byteLength":840,
			"byteOffset":11400,
			"target":34963
		},
		{
			"buffer":0,
			"byteLength":1620,
			"byteOffset":12240,
			"target":34962
		},
		{
			"buffer":0,
			"byteLength":1620,
			"byteOffset":13860,
			"target":34962
		},
		{
			"buffer":0,
			"byteLength":840,
			"byteOffset":15480,
			"target":34963
		},
		{
			"buffer":0,
			"byteLength":1620,
			"byteOffset":16320,
			"target":34962
		},
		{
			"buffer":0,
			"byteLength":1620,
			"byteOffset":17940,
			"target":34962
		},
		{
			"buffer":0,
			"byteLength":840,
			"byteOffset":19560,
			"target":34963
		},
		{
			"buffer":0,
			"byteLength":1620,
			"byteOffset":20400,
			"target":34962
		},
		{
			"buffer":0,
			"byteLength":1620,
			"byteOffset":22020,
			"target":34962
		},
		{
			"buffer":0,
			"byteLength":840,
			"byteOffset":23640,
			"target":34963
		},
		{
			"buffer":0,
			"byteLength":3480,
			"byteOffset":24480,
			"target":34962
		},
		{
			"buffer":0,
			"byteLength":3480,
			"byteOffset":27960,
			"target":34962
		},
		{
			"buffer":0,
			"byteLength":2304,
			"byteOffset":31440,
			"target":34963
		},
		{
			"buffer":0,
			"byteLength":4,
			"byteOffset":33744
		},
		{
			"buffer":0,
			"byteLength":12,
			"byteOffset":33748
		},
		{
			"buffer":0,
			"byteLength":16,
			"byteOffset":33760
		},
		{
			"buffer":0,
			"byteLength":12,
			"byteOffset":33776
		}
	],
	"buffers":[
		{
			"byteLength":33788,
			"uri":"scene.bin"
		}
	]
}
